<?xml version="1.0" standalone="no"?>
<!DOCTYPE svg PUBLIC "-//W3C//DTD SVG 20010904//EN"
 "http://www.w3.org/TR/2001/REC-SVG-20010904/DTD/svg10.dtd">
<svg version="1.0" xmlns="http://www.w3.org/2000/svg"
 width="136.000000pt" height="136.000000pt" viewBox="0 0 136.000000 136.000000"
 preserveAspectRatio="xMidYMid meet">
<metadata>
Created by potrace 1.11, written by Peter Selinger 2001-2013
</metadata>
<g transform="translate(0.000000,136.000000) scale(0.100000,-0.100000)"
fill="#000000" stroke="none">
<path d="M757 1223 c-4 -7 -5 -25 -2 -40 4 -21 3 -23 -3 -8 -9 19 -9 19 -20 0
-11 -19 -11 -18 -12 7 0 35 -13 42 -55 28 -29 -10 -35 -16 -35 -41 0 -16 -4
-29 -10 -29 -5 0 -10 -9 -10 -20 0 -30 38 -26 52 5 11 25 28 34 28 15 0 -5 7
-10 15 -10 8 0 15 6 15 13 0 9 2 9 8 0 4 -7 27 -15 50 -19 33 -5 47 -3 62 11
11 10 20 24 20 30 0 12 -45 31 -62 27 -5 -1 -8 6 -8 16 0 14 -2 14 -9 3 -7
-11 -10 -10 -13 5 -2 13 -6 15 -11 7z"/>
<path d="M533 1188 c-35 -17 -29 -47 13 -64 20 -8 37 -14 38 -12 2 2 1 22 -2
46 -4 44 -12 48 -49 30z"/>
<path d="M875 1171 c-6 -11 0 -14 20 -12 6 0 0 -6 -12 -15 -32 -23 -29 -29 17
-44 42 -14 129 -96 131 -125 1 -8 2 -21 3 -27 1 -7 -2 -24 -8 -38 -5 -14 -10
-81 -11 -150 -1 -69 -5 -147 -8 -175 -4 -27 -9 -71 -12 -96 -2 -25 -12 -63
-20 -83 -9 -21 -11 -35 -6 -31 12 7 15 -12 12 -57 -2 -29 22 -41 50 -24 11 6
35 6 67 -1 43 -8 58 -7 89 8 69 33 91 59 107 128 8 35 24 73 35 85 31 33 27
84 -11 135 -28 39 -31 50 -32 122 -1 72 -3 81 -28 106 -19 19 -28 23 -28 13
-1 -8 -7 3 -15 25 -8 22 -12 53 -9 68 5 23 0 34 -28 60 -19 18 -43 45 -52 60
-15 22 -25 27 -62 27 -24 0 -54 -5 -68 -11 -19 -9 -29 -9 -40 0 -11 10 -15 9
-19 -6 -4 -15 -5 -14 -6 4 0 12 -7 24 -13 26 -7 3 -3 6 9 6 12 1 24 -3 28 -9
3 -5 13 -6 21 -3 14 5 14 7 1 21 -19 18 -92 28 -102 13z m196 -87 c-5 -16 -10
-21 -10 -12 -1 18 10 51 15 45 2 -1 -1 -16 -5 -33z m176 -236 c-3 -8 -6 -5 -6
6 -1 11 2 17 5 13 3 -3 4 -12 1 -19z m-110 -50 c-3 -8 -6 -5 -6 6 -1 11 2 17
5 13 3 -3 4 -12 1 -19z m139 7 c-1 -8 -5 -17 -8 -21 -5 -4 -4 16 1 34 3 9 9
-1 7 -13z m-149 -47 c-3 -8 -6 -5 -6 6 -1 11 2 17 5 13 3 -3 4 -12 1 -19z
m138 -248 c-9 -41 -17 -33 -9 9 4 17 9 30 11 27 3 -2 2 -19 -2 -36z m-128 -47
c-3 -10 -5 -4 -5 12 0 17 2 24 5 18 2 -7 2 -21 0 -30z m70 -25 c-3 -7 -5 -2
-5 12 0 14 2 19 5 13 2 -7 2 -19 0 -25z m-120 -50 c-3 -7 -5 -2 -5 12 0 14 2
19 5 13 2 -7 2 -19 0 -25z"/>
<path d="M302 1119 c-18 -18 -32 -36 -32 -39 0 -3 -29 -28 -65 -54 -74 -54
-81 -64 -89 -126 -4 -25 -22 -75 -41 -112 -19 -37 -33 -75 -31 -85 16 -83 17
-111 5 -167 -15 -77 -10 -97 38 -162 21 -28 44 -60 52 -72 8 -11 24 -25 35
-30 12 -6 41 -20 66 -31 25 -11 53 -34 63 -50 9 -16 33 -35 54 -43 43 -16 205
-18 210 -3 1 6 -43 25 -100 44 -56 18 -107 38 -113 43 -7 5 -15 25 -19 45 -4
20 -22 74 -41 119 -33 79 -34 86 -30 191 5 147 26 224 82 295 24 31 53 76 63
101 21 48 66 86 113 96 16 3 30 11 31 16 2 15 -46 35 -95 40 -24 2 -61 7 -83
10 -37 6 -44 4 -73 -26z"/>
<path d="M656 1088 c3 -4 -2 -5 -11 -1 -10 3 -20 2 -24 -3 -3 -5 -41 -26 -83
-47 -85 -41 -94 -50 -89 -89 2 -20 -3 -28 -21 -34 -27 -8 -47 -32 -48 -55 0
-9 -20 -56 -45 -105 -44 -85 -45 -89 -25 -92 14 -2 20 -9 16 -18 -4 -9 4 -18
21 -25 31 -11 31 -11 35 23 2 15 12 36 22 47 15 17 16 25 6 55 -9 28 -8 40 5
65 28 55 61 67 200 72 45 2 151 -12 199 -26 63 -18 96 -44 96 -74 0 -11 4 -22
9 -25 4 -3 7 10 4 28 -3 35 16 66 42 66 14 0 35 50 35 84 0 12 -7 32 -16 44
-9 13 -13 29 -11 36 3 8 -5 18 -18 24 -13 6 -33 19 -45 29 -14 12 -39 19 -78
20 -31 1 -85 4 -119 6 -34 2 -60 0 -57 -5z m-5 -40 c18 -23 26 -58 12 -58 -22
1 -53 47 -46 68 6 17 12 15 34 -10z"/>
<path d="M583 858 c-62 -17 -49 -51 17 -44 19 2 44 -1 55 -7 19 -10 36 -13 82
-16 12 0 38 -15 58 -33 l36 -31 22 21 c20 21 20 22 3 41 -21 24 -78 44 -118
43 -16 0 -28 5 -28 12 0 7 -6 13 -12 13 -7 1 -29 3 -48 6 -19 2 -49 0 -67 -5z"/>
<path d="M472 838 c-7 -7 -12 -18 -12 -26 0 -7 -4 -10 -10 -7 -5 3 -12 -6 -16
-19 -4 -18 4 -45 29 -93 19 -38 38 -84 42 -103 4 -19 15 -48 25 -65 20 -33 35
-81 45 -137 4 -26 19 -49 48 -77 23 -22 43 -37 45 -32 2 5 -14 49 -34 97 -20
49 -47 121 -60 159 -69 202 -75 215 -99 215 -13 0 -25 7 -29 15 -4 11 1 15 19
15 14 0 25 7 28 18 4 15 6 14 12 -5 4 -14 12 -20 22 -16 10 4 11 9 4 16 -6 6
-11 21 -11 34 0 25 -27 32 -48 11z"/>
<path d="M959 823 c-1 -4 -3 -24 -4 -43 -2 -19 -6 -51 -8 -70 -3 -19 1 -46 8
-60 11 -22 11 -33 -4 -75 -10 -28 -24 -66 -31 -85 -7 -19 -21 -43 -32 -53 -19
-16 -20 -19 -4 -35 23 -26 20 -33 -9 -22 -21 8 -27 6 -37 -13 -7 -12 -12 -25
-11 -28 3 -11 -46 -29 -52 -19 -3 4 0 21 5 36 13 34 3 44 -36 33 -33 -9 -44
-29 -44 -81 0 -55 106 -92 148 -50 66 66 96 136 113 261 5 42 13 94 16 116 12
73 9 188 -4 192 -7 3 -14 1 -14 -4z"/>
<path d="M580 780 c0 -6 -11 -15 -25 -20 -24 -9 -34 -34 -17 -44 5 -3 14 -30
21 -61 21 -94 97 -135 204 -108 68 17 70 19 65 74 -5 50 -25 77 -102 137 -36
28 -46 28 -41 0 5 -25 -10 -57 -20 -46 -11 11 -13 42 -3 61 7 13 5 17 -12 17
-12 0 -20 -7 -20 -17 -1 -17 -1 -17 -14 0 -14 19 -36 23 -36 7z m108 -180 c27
-36 28 -50 3 -50 -12 0 -21 9 -25 24 -3 13 -9 31 -12 40 -10 26 11 18 34 -14z"/>
<path d="M846 722 c-6 -10 53 -102 65 -102 20 0 17 22 -8 64 -27 43 -46 56
-57 38z"/>
<path d="M413 648 c-6 -24 -13 -50 -17 -59 -4 -9 -1 -23 6 -30 7 -8 35 -44 60
-80 26 -37 54 -69 62 -72 23 -9 11 45 -30 128 -18 39 -38 89 -44 113 -6 23
-14 42 -19 42 -4 0 -12 -19 -18 -42z"/>
<path d="M285 600 c-10 -17 14 -134 38 -182 13 -26 20 -45 16 -42 -15 9 24
-91 44 -114 12 -13 52 -32 92 -44 38 -11 88 -30 109 -41 32 -15 51 -18 96 -13
40 5 67 2 93 -9 43 -18 130 -20 176 -4 54 19 54 78 1 117 -27 20 -30 20 -45 6
-9 -9 -14 -23 -11 -30 3 -8 0 -11 -10 -7 -7 3 -14 0 -14 -6 0 -16 -60 -43 -84
-38 -38 9 -230 97 -238 110 -4 7 -8 24 -8 39 0 19 -15 44 -49 80 -27 29 -63
71 -79 93 -31 43 -62 73 -62 59 0 -4 -6 -1 -12 8 -17 20 -46 30 -53 18z m149
-235 c-4 -8 -17 -15 -30 -15 -15 0 -24 6 -24 15 0 10 10 15 30 15 22 0 28 -4
24 -15z"/>
<path d="M925 599 c-11 -17 1 -21 15 -4 8 9 8 15 2 15 -6 0 -14 -5 -17 -11z"/>
<path d="M895 530 c-4 -11 -11 -18 -16 -14 -12 7 -51 -5 -45 -14 2 -4 -12 -8
-32 -9 -61 -3 -135 -12 -140 -18 -3 -2 -18 5 -33 16 -26 18 -28 19 -22 2 10
-27 23 -37 71 -56 58 -23 75 -22 67 3 -7 23 10 28 19 5 3 -8 12 -15 21 -15 41
0 135 71 135 102 0 24 -17 23 -25 -2z"/>
</g>
</svg>
